<svg width="46" height="45" viewBox="0 0 46 45" fill="none" xmlns="http://www.w3.org/2000/svg">
<path d="M39.5234 34.8047H9.28906V7.38281C9.28906 7.18945 9.13086 7.03125 8.9375 7.03125H6.47656C6.2832 7.03125 6.125 7.18945 6.125 7.38281V37.6172C6.125 37.8105 6.2832 37.9688 6.47656 37.9688H39.5234C39.7168 37.9688 39.875 37.8105 39.875 37.6172V35.1562C39.875 34.9629 39.7168 34.8047 39.5234 34.8047ZM13.9385 28.0239C14.0747 28.1602 14.2944 28.1602 14.4351 28.0239L20.5127 21.9771L26.1201 27.6196C26.2563 27.7559 26.4805 27.7559 26.6167 27.6196L38.7192 15.5215C38.8555 15.3853 38.8555 15.1611 38.7192 15.0249L36.979 13.2847C36.9129 13.2192 36.8237 13.1825 36.7307 13.1825C36.6377 13.1825 36.5485 13.2192 36.4824 13.2847L26.375 23.3877L20.7764 17.7539C20.7103 17.6885 20.6211 17.6518 20.5281 17.6518C20.4351 17.6518 20.3459 17.6885 20.2798 17.7539L12.2026 25.7827C12.1372 25.8488 12.1005 25.938 12.1005 26.031C12.1005 26.124 12.1372 26.2132 12.2026 26.2793L13.9385 28.0239Z" fill="#E3CF97"/>
</svg>
