<svg width="46" height="45" viewBox="0 0 46 45" fill="none" xmlns="http://www.w3.org/2000/svg">
<path d="M9.875 33.75V40.8112L12.7156 39.1069L21.6444 33.75H30.5C32.5681 33.75 34.25 32.0681 34.25 30V15C34.25 12.9319 32.5681 11.25 30.5 11.25H8C5.93187 11.25 4.25 12.9319 4.25 15V30C4.25 32.0681 5.93187 33.75 8 33.75H9.875ZM8 15H30.5V30H20.6056L13.625 34.1887V30H8V15Z" fill="#E3CF97"/>
<path d="M38 3.75H15.5C13.4319 3.75 11.75 5.43187 11.75 7.5H34.25C36.3181 7.5 38 9.18187 38 11.25V26.25C40.0681 26.25 41.75 24.5681 41.75 22.5V7.5C41.75 5.43187 40.0681 3.75 38 3.75Z" fill="#E3CF97"/>
</svg>
