<svg width="45" height="45" viewBox="0 0 45 45" fill="none" xmlns="http://www.w3.org/2000/svg">
<path d="M15.8203 8.08594H15.4688C15.6621 8.08594 15.8203 7.92773 15.8203 7.73438V8.08594H29.1797V7.73438C29.1797 7.92773 29.3379 8.08594 29.5312 8.08594H29.1797V11.25H32.3438V7.73438C32.3438 6.18311 31.0825 4.92188 29.5312 4.92188H15.4688C13.9175 4.92188 12.6562 6.18311 12.6562 7.73438V11.25H15.8203V8.08594ZM37.9688 11.25H7.03125C6.25342 11.25 5.625 11.8784 5.625 12.6562V14.0625C5.625 14.2559 5.7832 14.4141 5.97656 14.4141H8.63086L9.71631 37.3975C9.78662 38.896 11.0259 40.0781 12.5244 40.0781H32.4756C33.9785 40.0781 35.2134 38.9004 35.2837 37.3975L36.3691 14.4141H39.0234C39.2168 14.4141 39.375 14.2559 39.375 14.0625V12.6562C39.375 11.8784 38.7466 11.25 37.9688 11.25ZM32.1372 36.9141H12.8628L11.7993 14.4141H33.2007L32.1372 36.9141Z" fill="#F24E1E"/>
</svg>
