<svg width="46" height="45" viewBox="0 0 46 45" fill="none" xmlns="http://www.w3.org/2000/svg">
<path d="M35.6562 37.5H10.3438C8.78724 37.5001 7.2897 36.9046 6.15832 35.8356C5.02694 34.7666 4.3475 33.3053 4.25938 31.7513L4.25 31.4062V11.7188C4.24987 10.6498 4.65555 9.62059 5.38507 8.83921C6.11458 8.05784 7.11352 7.58254 8.18 7.50938L8.46875 7.5H31.9062C32.9752 7.49987 34.0044 7.90555 34.7858 8.63507C35.5672 9.36458 36.0425 10.3635 36.1156 11.43L36.125 11.7188V13.125H37.5312C38.6002 13.1249 39.6294 13.5306 40.4108 14.2601C41.1922 14.9896 41.6675 15.9885 41.7406 17.055L41.75 17.3438V31.4062C41.7501 32.9628 41.1546 34.4603 40.0856 35.5917C39.0166 36.7231 37.5553 37.4025 36.0013 37.4906L35.6562 37.5H10.3438H35.6562ZM10.3438 34.6875H35.6562C36.48 34.6874 37.2736 34.3775 37.8795 33.8193C38.4853 33.2611 38.8589 32.4954 38.9262 31.6744L38.9375 31.4062V17.3438C38.9375 17.0039 38.8144 16.6756 38.5911 16.4195C38.3677 16.1634 38.0592 15.9968 37.7225 15.9506L37.5312 15.9375H36.125V30.4688C36.125 30.8086 36.0019 31.1369 35.7786 31.393C35.5552 31.6491 35.2467 31.8157 34.91 31.8619L34.7188 31.875C34.3789 31.875 34.0506 31.7519 33.7945 31.5286C33.5384 31.3052 33.3718 30.9967 33.3256 30.66L33.3125 30.4688V11.7188C33.3125 11.3789 33.1894 11.0506 32.9661 10.7945C32.7427 10.5384 32.4342 10.3718 32.0975 10.3256L31.9062 10.3125H8.46875C8.12893 10.3125 7.80061 10.4356 7.54451 10.6589C7.2884 10.8823 7.12184 11.1908 7.07562 11.5275L7.0625 11.7188V31.4062C7.06253 32.2297 7.3722 33.0231 7.93002 33.6289C8.48785 34.2346 9.25306 34.6085 10.0737 34.6762L10.3438 34.6875H35.6562H10.3438ZM23.4613 27.1875H29.0975C29.4538 27.1876 29.7968 27.323 30.0571 27.5662C30.3175 27.8094 30.4758 28.1424 30.5001 28.4979C30.5243 28.8534 30.4128 29.2048 30.1879 29.4812C29.9631 29.7576 29.6417 29.9383 29.2888 29.9869L29.0975 30H23.4613C23.105 29.9999 22.762 29.8645 22.5016 29.6213C22.2413 29.3781 22.083 29.0451 22.0587 28.6896C22.0344 28.3341 22.146 27.9827 22.3708 27.7063C22.5957 27.4299 22.917 27.2492 23.27 27.2006L23.4613 27.1875H29.0975H23.4613ZM17.8306 20.6344C18.2036 20.6344 18.5613 20.7825 18.825 21.0463C19.0887 21.31 19.2369 21.6677 19.2369 22.0406V28.5938C19.2369 28.9667 19.0887 29.3244 18.825 29.5881C18.5613 29.8518 18.2036 30 17.8306 30H11.2775C10.9045 30 10.5469 29.8518 10.2831 29.5881C10.0194 29.3244 9.87125 28.9667 9.87125 28.5938V22.0406C9.87125 21.6677 10.0194 21.31 10.2831 21.0463C10.5469 20.7825 10.9045 20.6344 11.2775 20.6344H17.8306ZM16.4244 23.4469H12.6838V27.1875H16.4244V23.4469ZM23.4613 20.6344H29.0975C29.4538 20.6345 29.7968 20.7698 30.0571 21.0131C30.3175 21.2563 30.4758 21.5893 30.5001 21.9448C30.5243 22.3002 30.4128 22.6517 30.1879 22.9281C29.9631 23.2044 29.6417 23.3852 29.2888 23.4338L29.0975 23.4469H23.4613C23.1024 23.4505 22.7558 23.3169 22.4923 23.0732C22.2288 22.8296 22.0684 22.4945 22.044 22.1365C22.0195 21.7785 22.1329 21.4247 22.3608 21.1475C22.5887 20.8703 22.914 20.6908 23.27 20.6456L23.4613 20.6344H29.0975H23.4613ZM11.2775 14.0662H29.0975C29.4563 14.0626 29.803 14.1963 30.0665 14.4399C30.33 14.6835 30.4903 15.0186 30.5148 15.3766C30.5392 15.7347 30.4259 16.0885 30.1979 16.3656C29.97 16.6428 29.6447 16.8223 29.2888 16.8675L29.0975 16.8787H11.2775C10.9212 16.8786 10.5782 16.7433 10.3179 16.5001C10.0575 16.2568 9.89924 15.9238 9.87495 15.5683C9.85067 15.2129 9.96222 14.8615 10.1871 14.5851C10.4119 14.3087 10.7333 14.1279 11.0862 14.0794L11.2775 14.0662H29.0975H11.2775V14.0662Z" fill="#E3CF97"/>
</svg>
