<svg width="33" height="33" viewBox="0 0 33 33" fill="none" xmlns="http://www.w3.org/2000/svg">
<path d="M24.406 4.46899C23.8651 4.4703 23.3299 4.5787 22.8311 4.78792C22.3323 4.99714 21.8799 5.30305 21.5 5.68799L5.68699 21.5L5.62499 21.813L4.53099 27.313L4.21899 28.781L5.68799 28.469L11.188 27.375L11.5 27.312L27.313 11.5C27.6989 11.1207 28.0055 10.6684 28.2148 10.1693C28.424 9.67032 28.5318 9.13462 28.5318 8.59349C28.5318 8.05237 28.424 7.51667 28.2148 7.01764C28.0055 6.51862 27.6989 6.06627 27.313 5.68699C26.9329 5.30211 26.4803 4.99631 25.9813 4.78726C25.4824 4.57821 24.947 4.47004 24.406 4.46899ZM24.406 6.37499C24.91 6.37499 25.418 6.60499 25.906 7.09399C26.879 8.06599 26.879 9.12099 25.906 10.094L25.188 10.781L22.218 7.81199L22.906 7.09399C23.395 6.60499 23.902 6.37499 24.406 6.37499ZM20.813 9.21899L23.781 12.188L11.688 24.28C11.0351 23.0027 9.99577 21.964 8.71799 21.312L20.813 9.21899ZM7.43799 22.938C8.02983 23.1761 8.56744 23.5314 9.01853 23.9825C9.46963 24.4335 9.82489 24.9712 10.063 25.563L6.78099 26.219L7.43799 22.938Z" fill="#F0F3FF"/>
</svg>
