<svg width="42" height="41" viewBox="0 0 42 41" fill="none" xmlns="http://www.w3.org/2000/svg">
<path d="M16.1953 16.6563C16.1953 16.4014 16.2965 16.157 16.4767 15.9768C16.6569 15.7966 16.9014 15.6953 17.1562 15.6953H27.4062C27.6611 15.6953 27.9055 15.7966 28.0857 15.9768C28.2659 16.157 28.3671 16.4014 28.3671 16.6563C28.3671 16.9111 28.2659 17.1555 28.0857 17.3357C27.9055 17.516 27.6611 17.6172 27.4062 17.6172H17.1562C16.9014 17.6172 16.6569 17.516 16.4767 17.3357C16.2965 17.1555 16.1953 16.9111 16.1953 16.6563ZM27.4062 22.7422C27.6611 22.7422 27.9055 22.641 28.0857 22.4607C28.2659 22.2805 28.3671 22.0361 28.3671 21.7813C28.3671 21.5264 28.2659 21.282 28.0857 21.1018C27.9055 20.9216 27.6611 20.8203 27.4062 20.8203H17.1562C16.9014 20.8203 16.6569 20.9216 16.4767 21.1018C16.2965 21.282 16.1953 21.5264 16.1953 21.7813C16.1953 22.0361 16.2965 22.2805 16.4767 22.4607C16.6569 22.641 16.9014 22.7422 17.1562 22.7422H27.4062ZM37.3359 30.75C37.3317 32.023 36.8241 33.2426 35.924 34.1428C35.0238 35.0429 33.8042 35.5505 32.5312 35.5547H14.5937C13.3207 35.5505 12.1011 35.0429 11.2009 34.1428C10.3008 33.2426 9.79324 32.023 9.78902 30.75V10.25C9.78902 9.48544 9.4853 8.75218 8.94466 8.21155C8.40403 7.67092 7.67078 7.36719 6.90621 7.36719C6.14164 7.36719 5.40838 7.67092 4.86775 8.21155C4.32712 8.75218 4.02339 9.48544 4.02339 10.25C4.02107 10.96 4.28378 11.6454 4.76011 12.1719C4.84424 12.2665 4.9089 12.3768 4.95041 12.4964C4.99191 12.6161 5.00945 12.7427 5.00201 12.8691C4.99458 12.9955 4.96232 13.1192 4.90707 13.2332C4.85183 13.3471 4.77468 13.4491 4.68003 13.5332C4.58539 13.6173 4.4751 13.682 4.35547 13.7235C4.23583 13.765 4.1092 13.7825 3.98279 13.7751C3.85637 13.7677 3.73267 13.7354 3.61872 13.6802C3.50478 13.6249 3.40283 13.5478 3.31871 13.4531C2.70001 12.7614 2.29488 11.9053 2.15228 10.9883C2.00968 10.0713 2.1357 9.13256 2.51513 8.28562C2.89456 7.43868 3.51115 6.71976 4.29039 6.21572C5.06963 5.71168 5.97816 5.4441 6.90621 5.44532H28.6875C29.9604 5.44954 31.1801 5.9571 32.0802 6.85724C32.9804 7.75738 33.4879 8.97702 33.4922 10.25V27.2266H35.398C35.5338 27.2269 35.668 27.2556 35.7921 27.3108C35.9162 27.3659 36.0274 27.4463 36.1187 27.5469C36.9043 28.4287 37.3376 29.569 37.3359 30.75ZM17.4765 30.75C17.4788 30.04 17.2161 29.3547 16.7398 28.8281C16.6142 28.6926 16.5318 28.5227 16.5033 28.3401C16.4748 28.1575 16.5014 27.9705 16.5796 27.8031C16.6544 27.6317 16.7776 27.4859 16.9341 27.3835C17.0906 27.2811 17.2735 27.2265 17.4605 27.2266H31.5703V10.25C31.5661 9.48673 31.261 8.75592 30.7213 8.2162C30.1815 7.67647 29.4507 7.3714 28.6875 7.36719H10.75C11.3769 8.19721 11.7144 9.20985 11.7109 10.25V30.75C11.7109 31.5146 12.0146 32.2478 12.5553 32.7885C13.0959 33.3291 13.8291 33.6328 14.5937 33.6328C15.3583 33.6328 16.0915 33.3291 16.6322 32.7885C17.1728 32.2478 17.4765 31.5146 17.4765 30.75V30.75ZM35.414 30.75C35.4119 30.181 35.245 29.6247 34.9336 29.1484H19.1261C19.3045 29.6637 19.3965 30.2048 19.3984 30.75C19.4019 31.7902 19.0644 32.8028 18.4375 33.6328H32.5312C33.2945 33.6286 34.0253 33.3235 34.565 32.7838C35.1047 32.2441 35.4098 31.5133 35.414 30.75V30.75Z" fill="#E3CF97"/>
</svg>
