<svg width="45" height="45" viewBox="0 0 45 45" fill="none" xmlns="http://www.w3.org/2000/svg">
<path d="M26.25 22.5C26.25 20.4375 24.5625 18.75 22.5 18.75C20.4375 18.75 18.75 20.4375 18.75 22.5C18.75 24.5625 20.4375 26.25 22.5 26.25C24.5625 26.25 26.25 24.5625 26.25 22.5ZM22.5 5.625C18.0245 5.625 13.7322 7.4029 10.5676 10.5676C7.4029 13.7322 5.625 18.0245 5.625 22.5H0L7.5 30L15 22.5H9.375C9.375 15.2438 15.2438 9.375 22.5 9.375C29.7562 9.375 35.625 15.2438 35.625 22.5C35.6275 24.9109 34.9655 27.2758 33.7117 29.3349C32.4579 31.3941 30.6608 33.0678 28.5178 34.1723C26.3748 35.2767 23.9688 35.7691 21.5643 35.5954C19.1597 35.4217 16.8495 34.5885 14.8875 33.1875L12.225 35.8875C14.3525 37.5201 16.8384 38.6221 19.4767 39.1023C22.115 39.5824 24.8298 39.4269 27.396 38.6486C29.9623 37.8703 32.3061 36.4916 34.2332 34.6268C36.1603 32.7619 37.6152 30.4647 38.4774 27.9254C39.3395 25.3861 39.5841 22.6779 39.1908 20.0252C38.7975 17.3725 37.7777 14.8518 36.2159 12.6718C34.6541 10.4919 32.5952 8.71562 30.2099 7.49013C27.8247 6.26465 25.1817 5.62527 22.5 5.625V5.625Z" fill="#F24E1E"/>
</svg>
