<svg width="42" height="41" viewBox="0 0 42 41" fill="none" xmlns="http://www.w3.org/2000/svg">
<path d="M20.9999 20.5C25.7174 20.5 29.5416 16.6758 29.5416 11.9583C29.5416 7.24089 25.7174 3.41666 20.9999 3.41666C16.2825 3.41666 12.4583 7.24089 12.4583 11.9583C12.4583 16.6758 16.2825 20.5 20.9999 20.5Z" stroke="#E3CF97" stroke-width="2"/>
<path d="M29.5416 23.9167H30.1429C31.3919 23.917 32.5977 24.3734 33.5338 25.2001C34.47 26.0268 35.0721 27.1669 35.2269 28.4062L35.8949 33.743C35.955 34.2238 35.9121 34.7118 35.7692 35.1748C35.6262 35.6377 35.3864 36.065 35.0657 36.4281C34.745 36.7913 34.3507 37.0822 33.9091 37.2813C33.4674 37.4805 32.9884 37.5834 32.5039 37.5833H9.49602C9.01151 37.5834 8.53251 37.4805 8.09083 37.2813C7.64914 37.0822 7.25486 36.7913 6.93417 36.4281C6.61347 36.065 6.37368 35.6377 6.23072 35.1748C6.08776 34.7118 6.0449 34.2238 6.10498 33.743L6.77123 28.4062C6.92617 27.1663 7.52873 26.0257 8.46561 25.199C9.40249 24.3722 10.6091 23.9162 11.8586 23.9167H12.4583" stroke="#E3CF97" stroke-width="2" stroke-linecap="round" stroke-linejoin="round"/>
</svg>
