<svg width="1439" height="114" viewBox="0 0 1439 114" fill="none" xmlns="http://www.w3.org/2000/svg">
<path fill-rule="evenodd" clip-rule="evenodd" d="M-1 26.1287L33.8 17.3415C67.4 8.55439 135.8 -9.01988 204.2 5.62535C273.8 20.2706 342.2 58.9368 410.6 64.7949C479 70.653 547.4 35.8137 615.8 32.8846C684.2 29.9556 741.4 56.9165 822.2 64.7949C903 72.6733 1013.6 53.8453 1082 47.9872C1150.4 42.1291 1189 70.3974 1233.8 58.3482C1302.2 43.7029 1370.6 26.1287 1404.2 17.3415L1439 8.55439V114H1404.2C1370.6 114 1302.2 114 1233.8 114C1164.2 114 1095.8 114 1027.4 114C959 114 890.6 114 822.2 114C753.8 114 684.2 114 615.8 114C547.4 114 479 114 410.6 114C342.2 114 273.8 114 204.2 114C135.8 114 67.4 114 33.8 114H-1V26.1287Z" fill="#1B348B"/>
</svg>
