<svg width="130" height="130" viewBox="0 0 130 130" fill="none" xmlns="http://www.w3.org/2000/svg">
<path d="M65 8.125C33.5918 8.125 8.125 33.5918 8.125 65C8.125 96.4082 33.5918 121.875 65 121.875C96.4082 121.875 121.875 96.4082 121.875 65C121.875 33.5918 96.4082 8.125 65 8.125ZM65 112.227C38.9238 112.227 17.7734 91.0762 17.7734 65C17.7734 38.9238 38.9238 17.7734 65 17.7734C91.0762 17.7734 112.227 38.9238 112.227 65C112.227 91.0762 91.0762 112.227 65 112.227Z" fill="#5A70BD"/>
<path d="M87.1787 81.0722L69.0752 67.9834V36.5625C69.0752 36.0039 68.6182 35.5469 68.0596 35.5469H61.9531C61.3945 35.5469 60.9375 36.0039 60.9375 36.5625V71.5254C60.9375 71.8555 61.0898 72.1601 61.3564 72.3506L82.3545 87.6611C82.8115 87.9912 83.4463 87.8896 83.7764 87.4453L87.4072 82.4941C87.7373 82.0244 87.6357 81.3896 87.1787 81.0722V81.0722Z" fill="#5A70BD"/>
</svg>
